# Exported from Wings 3D 2.1.5
mtllib Sekir.mtl
o Cube2
#69 vertices, 63 faces
v -1.00000000 -1.00000000 -1.00000000
v -1.00000000 -1.00000000 1.00000000
v -1.00000000 1.00000000 -1.00000000
v -1.00000000 1.00000000 1.00000000
v 1.00000000 -1.00000000 -1.00000000
v 1.00000000 -1.00000000 1.00000000
v 1.00000000 1.00000000 -1.00000000
v 1.00000000 1.00000000 1.00000000
v -0.73400000 1.00000000 -0.73400000
v -0.73400000 1.00000000 0.73400000
v 0.73400000 1.00000000 0.73400000
v 0.73400000 1.00000000 -0.73400000
v -0.73400000 40.74147620 -0.73400000
v -0.73400000 40.74147620 0.73400000
v 0.73400000 40.74147620 0.73400000
v 0.73400000 40.74147620 -0.73400000
v -0.73400000 49.35556825 -0.73400000
v -0.73400000 49.35556825 0.73400000
v 0.73400000 49.35556825 0.73400000
v 0.73400000 49.35556825 -0.73400000
v -0.44040000 46.87865361 -0.73400000
v 0.44040000 46.87865361 -0.73400000
v 0.44040000 43.21839083 -0.73400000
v -0.44040000 43.21839083 -0.73400000
v -0.44040000 46.87865361 -2.28584237
v 0.44040000 46.87865361 -2.28584237
v 0.44040000 43.21839083 -2.28584237
v -0.44040000 43.21839083 -2.28584237
v -0.44040000 45.60147271 -5.99845348
v 0.44040000 45.60147271 -5.99845348
v 0.44040000 44.49557173 -5.99845348
v -0.44040000 44.49557173 -5.99845348
v -0.33030000 43.14485239 -5.99845348
v 0.33030000 43.14485239 -5.99845348
v 0.44040000 36.70688811 -2.28584237
v -0.44040000 36.70688811 -2.28584237
v 0.33030000 46.95219206 -5.99845348
v -0.33030000 46.95219206 -5.99845348
v -0.44040000 53.39015633 -2.28584237
v 0.44040000 53.39015633 -2.28584237
v 0.0000000e+0 45.60147271 -5.99845348
v 0.44040000 45.04852222 -5.99845348
v 0.0000000e+0 44.49557173 -5.99845348
v -0.44040000 45.04852222 -5.99845348
v 0.0000000e+0 42.93901665 -5.99845348
v -0.44040000 43.76235960 -5.99845348
v 0.44040000 43.76235960 -5.99845348
v 0.0000000e+0 47.15802780 -5.99845348
v 0.44040000 46.33468484 -5.99845348
v -0.44040000 46.33468484 -5.99845348
v 0.0000000e+0 45.04852222 -5.99845348
v 0.0000000e+0 43.76235960 -5.99845348
v 0.0000000e+0 46.33468484 -5.99845348
v 0.0000000e+0 53.39015633 -2.28584237
v 0.44040000 45.04852222 -2.28584237
v 0.0000000e+0 36.70688811 -2.28584237
v -0.44040000 45.04852222 -2.28584237
v 0.44040000 39.96263947 -2.28584237
v -0.44040000 39.96263947 -2.28584237
v -0.44040000 50.13440497 -2.28584237
v 0.44040000 50.13440497 -2.28584237
v -0.58573200 43.90069949 0.73400000
v 0.58573200 43.90069949 0.73400000
v 0.58573200 46.19634496 0.73400000
v -0.58573200 46.19634496 0.73400000
v -0.38775458 44.28866357 3.14215073
v 0.38775458 44.28866357 3.14215073
v 0.38775458 45.80838087 3.14215073
v -0.38775458 45.80838087 3.14215073
vn -0.57735027 -0.57735027 -0.57735027
vn -0.57735027 -0.57735027 0.57735027
vn -0.40824829 0.81649658 -0.40824829
vn -0.40824829 0.81649658 0.40824829
vn 0.57735027 -0.57735027 -0.57735027
vn 0.57735027 -0.57735027 0.57735027
vn 0.40824829 0.81649658 -0.40824829
vn 0.40824829 0.81649658 0.40824829
vn -0.40824829 0.81649658 -0.40824829
vn -0.40824829 0.81649658 0.40824829
vn 0.40824829 0.81649658 0.40824829
vn 0.40824829 0.81649658 -0.40824829
vn -0.55470020 0.0000000e+0 -0.83205029
vn -0.55470020 0.0000000e+0 0.83205029
vn 0.55470020 0.0000000e+0 0.83205029
vn 0.55470020 0.0000000e+0 -0.83205029
vn -0.40824829 0.40824829 -0.81649658
vn -0.40824829 0.40824829 0.81649658
vn 0.40824829 0.40824829 0.81649658
vn 0.40824829 0.40824829 -0.81649658
vn -0.40824829 0.40824829 -0.81649658
vn 0.40824829 0.40824829 -0.81649658
vn 0.40824829 -0.40824829 -0.81649658
vn -0.40824829 -0.40824829 -0.81649658
vn -0.90453403 0.30151134 0.30151134
vn 0.90453403 0.30151134 0.30151134
vn 0.90453403 -0.30151134 0.30151134
vn -0.90453403 -0.30151134 0.30151134
vn -0.70710678 0.0000000e+0 -0.70710678
vn 0.70710678 0.0000000e+0 -0.70710678
vn 0.70710678 0.0000000e+0 -0.70710678
vn -0.70710678 0.0000000e+0 -0.70710678
vn -0.49600235 -0.23166319 -0.83684756
vn 0.49600235 -0.23166319 -0.83684756
vn 0.90367501 -0.42207105 7.2301435e-2
vn -0.90367501 -0.42207105 7.2301435e-2
vn 0.49600235 0.23166319 -0.83684756
vn -0.49600235 0.23166319 -0.83684756
vn -0.90367501 0.42207105 7.2301435e-2
vn 0.90367501 0.42207105 7.2301435e-2
vn 0.0000000e+0 0.0000000e+0 -1.00000000
vn 0.70710678 0.0000000e+0 -0.70710678
vn 0.0000000e+0 0.0000000e+0 -1.00000000
vn -0.70710678 0.0000000e+0 -0.70710678
vn 0.0000000e+0 -0.26028951 -0.96553062
vn -0.69727299 -9.9010140e-3 -0.71673729
vn 0.69727299 -9.9010140e-3 -0.71673729
vn 0.0000000e+0 0.26028951 -0.96553062
vn 0.69727299 9.9010140e-3 -0.71673729
vn -0.69727299 9.9010140e-3 -0.71673729
vn 0.0000000e+0 0.0000000e+0 -1.00000000
vn 0.0000000e+0 0.0000000e+0 -1.00000000
vn 0.0000000e+0 0.0000000e+0 -1.00000000
vn -1.3568117e-16 0.81509280 -0.57933041
vn 1.00000000 0.0000000e+0 0.0000000e+0
vn 1.3568117e-16 -0.81509280 -0.57933041
vn -1.00000000 0.0000000e+0 0.0000000e+0
vn 0.90373486 -1.2832695e-2 0.42790025
vn -0.90373486 -1.2832695e-2 0.42790025
vn -0.90373486 1.2832695e-2 0.42790025
vn 0.90373486 1.2832695e-2 0.42790025
vn -0.37696248 -0.37341928 0.84761862
vn 0.37696248 -0.37341928 0.84761862
vn 0.37696248 0.37341928 0.84761862
vn -0.37696248 0.37341928 0.84761862
vn -0.53211432 -0.52711279 0.66257563
vn 0.53211432 -0.52711279 0.66257563
vn 0.53211432 0.52711279 0.66257563
vn -0.53211432 0.52711279 0.66257563
g Cube2_Metall
usemtl Metall
s 1
f 1//1 5//5 6//6 2//2
f 2//2 4//4 3//3 1//1
f 2//2 6//6 8//8 4//4
f 3//3 7//7 5//5 1//1
f 3//3 9//9 12//12 7//7
f 4//4 10//10 9//9 3//3
f 5//5 7//7 8//8 6//6
f 7//7 12//12 11//11 8//8
f 8//8 11//11 10//10 4//4
f 21//21 25//25 57//57 28//28 24//24
f 22//22 26//26 25//25 21//21
f 23//23 27//27 55//55 26//26 22//22
f 24//24 28//28 27//27 23//23
f 25//25 29//29 44//44 57//57
f 25//25 60//60 50//50 29//29
f 26//26 55//55 42//42 30//30
f 26//26 61//61 40//40 54//54 39//39 60//60 25//25
f 27//27 31//31 42//42 55//55
f 27//27 58//58 47//47 31//31
f 28//28 57//57 44//44 32//32
f 28//28 59//59 36//36 56//56 35//35 58//58 27//27
f 29//29 41//41 51//51 44//44
f 30//30 42//42 51//51 41//41
f 30//30 49//49 61//61 26//26
f 31//31 43//43 51//51 42//42
f 32//32 44//44 51//51 43//43
f 32//32 46//46 59//59 28//28
f 33//33 46//46 52//52 45//45
f 34//34 35//35 56//56 45//45
f 34//34 47//47 58//58 35//35
f 36//36 33//33 45//45 56//56
f 36//36 59//59 46//46 33//33
f 37//37 49//49 53//53 48//48
f 38//38 39//39 54//54 48//48
f 38//38 50//50 60//60 39//39
f 40//40 37//37 48//48 54//54
f 40//40 61//61 49//49 37//37
f 41//41 53//53 49//49 30//30
f 43//43 52//52 46//46 32//32
f 45//45 52//52 47//47 34//34
f 47//47 52//52 43//43 31//31
f 48//48 53//53 50//50 38//38
f 50//50 53//53 41//41 29//29
f 62//62 66//66 69//69 65//65
f 63//63 67//67 66//66 62//62
f 64//64 68//68 67//67 63//63
f 65//65 69//69 68//68 64//64
f 67//67 68//68 69//69 66//66
g Cube2_Wood
usemtl Wood
s 1
f 9//9 13//13 16//16 12//12
f 10//10 14//14 13//13 9//9
f 11//11 15//15 14//14 10//10
f 12//12 16//16 15//15 11//11
f 13//13 24//24 23//23 16//16
f 14//14 18//18 17//17 13//13
f 14//14 62//62 65//65 18//18
f 15//15 63//63 62//62 14//14
f 16//16 20//20 19//19 15//15
f 16//16 23//23 22//22 20//20
f 17//17 21//21 24//24 13//13
f 18//18 19//19 20//20 17//17
f 18//18 65//65 64//64 19//19
f 19//19 64//64 63//63 15//15
f 20//20 22//22 21//21 17//17
