# Exported from Wings 3D 2.1.5
mtllib Apple.mtl
o Cube2
#90 vertices, 88 faces
v -6.1111111e-2 -0.55555556 -0.55555556
v -6.1111111e-2 -0.55555556 0.55555556
v -0.10074508 1.03475000 -0.95868750
v -0.10074508 1.03475000 0.95868750
v 6.1111111e-2 -0.55555556 -0.55555556
v 6.1111111e-2 -0.55555556 0.55555556
v 0.10074508 1.03475000 -0.95868750
v 0.10074508 1.03475000 0.95868750
v -0.60370123 -2.45850000 -2.41950000
v -0.60370123 -2.45850000 2.41950000
v -0.48435305 2.57128000 2.57628000
v -0.48435305 2.57128000 -2.57628000
v 0.60370123 -2.45850000 2.41950000
v 0.60370123 -2.45850000 -2.41950000
v 0.48435305 2.57128000 -2.57628000
v 0.48435305 2.57128000 2.57628000
v -2.63944436 -1.82111111 -1.79222222
v -2.63944436 -1.82111111 1.79222222
v -2.63944436 1.82111111 1.79222222
v -2.63944436 1.82111111 -1.79222222
v 2.63944436 -1.82111111 1.79222222
v 2.63944436 -1.82111111 -1.79222222
v 2.63944436 1.82111111 -1.79222222
v 2.63944436 1.82111111 1.79222222
v -8.2500000e-2 -0.75000000 0.0000000e+0
v -8.2500000e-2 0.0000000e+0 -0.75000000
v -8.2500000e-2 0.0000000e+0 0.75000000
v -0.13432678 1.03475000 -2.7755576e-17
v 8.2500000e-2 -0.75000000 0.0000000e+0
v 8.2500000e-2 0.0000000e+0 -0.75000000
v 8.2500000e-2 0.0000000e+0 0.75000000
v 0.13432678 1.03475000 2.7755576e-17
v -0.60370123 -3.27800000 0.0000000e+0
v -0.60370123 0.0000000e+0 3.22600000
v -0.65552801 2.99325000 -2.7755576e-17
v -0.15548034 2.13900000 1.58475000
v -0.60370123 0.0000000e+0 -3.22600000
v -0.15548034 2.13900000 -1.58475000
v 0.60370123 -3.27800000 0.0000000e+0
v 0.60370123 0.0000000e+0 -3.22600000
v 0.65552801 2.99325000 2.7755576e-17
v 0.15548034 2.13900000 -1.58475000
v 0.60370123 0.0000000e+0 3.22600000
v 0.15548034 2.13900000 1.58475000
v -2.93129812 -2.45850000 0.0000000e+0
v -1.80557645 -2.45850000 -2.41950000
v -2.93129812 0.0000000e+0 2.41950000
v -1.80557645 -2.45850000 2.41950000
v -2.93129812 2.45850000 0.0000000e+0
v -1.80557645 2.45850000 2.41950000
v -2.93129812 0.0000000e+0 -2.41950000
v -1.80557645 2.45850000 -2.41950000
v 2.93129812 -2.45850000 0.0000000e+0
v 1.80557645 -2.45850000 2.41950000
v 2.93129812 0.0000000e+0 -2.41950000
v 1.80557645 -2.45850000 -2.41950000
v 2.93129812 2.45850000 0.0000000e+0
v 1.80557645 2.45850000 -2.41950000
v 2.93129812 0.0000000e+0 2.41950000
v 1.80557645 2.45850000 2.41950000
v 0.0000000e+0 1.03475000 -1.27825000
v 0.0000000e+0 -0.75000000 -0.75000000
v 0.0000000e+0 -0.75000000 0.75000000
v 0.0000000e+0 1.03475000 1.27825000
v 0.0000000e+0 2.17375000 2.94775000
v 0.0000000e+0 -2.45850000 2.41950000
v 0.0000000e+0 -2.45850000 -2.41950000
v 0.0000000e+0 2.17375000 -2.94775000
v 3.30653868 0.0000000e+0 0.0000000e+0
v -3.30653868 0.0000000e+0 0.0000000e+0
v -0.20730711 2.13900000 -1.1102230e-16
v 0.20730711 2.13900000 1.1102230e-16
v -1.80557645 -3.27800000 0.0000000e+0
v -1.80557645 0.0000000e+0 3.22600000
v -1.80557645 3.27800000 0.0000000e+0
v -1.80557645 0.0000000e+0 -3.22600000
v 1.80557645 -3.27800000 0.0000000e+0
v 1.80557645 0.0000000e+0 -3.22600000
v 1.80557645 3.27800000 0.0000000e+0
v 1.80557645 0.0000000e+0 3.22600000
v 0.11000000 0.0000000e+0 0.0000000e+0
v -0.11000000 0.0000000e+0 0.0000000e+0
v 0.0000000e+0 0.0000000e+0 -1.00000000
v 0.0000000e+0 -1.00000000 0.0000000e+0
v 0.0000000e+0 0.0000000e+0 1.00000000
v 0.0000000e+0 2.13900000 2.11300000
v 0.0000000e+0 0.0000000e+0 3.22600000
v 0.0000000e+0 -3.27800000 0.0000000e+0
v 0.0000000e+0 0.0000000e+0 -3.22600000
v 0.0000000e+0 2.13900000 -2.11300000
vn 0.98051496 0.13890718 0.13890718
vn 0.98051496 0.13890718 -0.13890718
vn 0.98135357 9.6537731e-2 0.16620964
vn 0.98135357 9.6537731e-2 -0.16620964
vn -0.98051496 0.13890718 0.13890718
vn -0.98051496 0.13890718 -0.13890718
vn -0.98135357 9.6537731e-2 0.16620964
vn -0.98135357 9.6537731e-2 -0.16620964
vn 0.0000000e+0 -0.70370652 -0.71049077
vn 0.0000000e+0 -0.70370652 0.71049077
vn 0.33013136 0.75418031 0.56764896
vn 0.33013136 0.75418031 -0.56764896
vn 0.0000000e+0 -0.70370652 0.71049077
vn 0.0000000e+0 -0.70370652 -0.71049077
vn -0.33013136 0.75418031 -0.56764896
vn -0.33013136 0.75418031 0.56764896
vn -0.79673324 -0.42444765 -0.43018640
vn -0.79673324 -0.42444765 0.43018640
vn -0.79673324 0.42444765 0.43018640
vn -0.79673324 0.42444765 -0.43018640
vn 0.79673324 -0.42444765 0.43018640
vn 0.79673324 -0.42444765 -0.43018640
vn 0.79673324 0.42444765 -0.43018640
vn 0.79673324 0.42444765 0.43018640
vn 0.98787091 0.15527735 0.0000000e+0
vn 0.98446414 6.3970144e-2 0.16351812
vn 0.98446414 6.3970144e-2 -0.16351812
vn 0.99895549 4.5693874e-2 0.0000000e+0
vn -0.98787091 0.15527735 0.0000000e+0
vn -0.98446414 6.3970144e-2 0.16351812
vn -0.98446414 6.3970144e-2 -0.16351812
vn -0.99895549 4.5693874e-2 0.0000000e+0
vn 0.0000000e+0 -1.00000000 0.0000000e+0
vn -8.5164953e-2 -3.9930749e-2 0.99556640
vn 0.52310605 0.85226760 0.0000000e+0
vn 0.90245480 0.41751908 -0.10608089
vn -8.5164953e-2 -3.9930749e-2 -0.99556640
vn 0.90245480 0.41751908 0.10608089
vn 0.0000000e+0 -1.00000000 0.0000000e+0
vn 8.5164953e-2 -3.9930749e-2 -0.99556640
vn -0.52310605 0.85226760 0.0000000e+0
vn -0.90245480 0.41751908 0.10608089
vn 8.5164953e-2 -3.9930749e-2 0.99556640
vn -0.90245480 0.41751908 -0.10608089
vn -0.87175510 -0.48994188 0.0000000e+0
vn -0.36272259 -0.65528388 -0.66259744
vn -0.86898711 -1.5148024e-17 0.49483472
vn -0.36272259 -0.65528388 0.66259744
vn -0.87175510 0.48994188 0.0000000e+0
vn -0.37363332 0.66153800 0.65020429
vn -0.86898711 0.0000000e+0 -0.49483472
vn -0.37363332 0.66153800 -0.65020429
vn 0.87175510 -0.48994188 0.0000000e+0
vn 0.36272259 -0.65528388 0.66259744
vn 0.86898711 -1.5148024e-17 -0.49483472
vn 0.36272259 -0.65528388 -0.66259744
vn 0.87175510 0.48994188 0.0000000e+0
vn 0.37363332 0.66153800 -0.65020429
vn 0.86898711 0.0000000e+0 0.49483472
vn 0.37363332 0.66153800 0.65020429
vn 0.0000000e+0 0.44283138 0.89660491
vn 0.0000000e+0 0.70710678 0.70710678
vn 0.0000000e+0 0.70710678 -0.70710678
vn 0.0000000e+0 0.44283138 -0.89660491
vn 0.0000000e+0 0.75104078 0.66025582
vn 0.0000000e+0 -0.70370652 0.71049077
vn 0.0000000e+0 -0.70370652 -0.71049077
vn 0.0000000e+0 0.75104078 -0.66025582
vn 1.00000000 0.0000000e+0 0.0000000e+0
vn -1.00000000 0.0000000e+0 0.0000000e+0
vn 0.95433706 0.29873196 0.0000000e+0
vn -0.95433706 0.29873196 0.0000000e+0
vn -0.35302005 -0.93561576 0.0000000e+0
vn -0.36586126 -9.0679399e-3 0.93062522
vn -0.32305087 0.94638160 0.0000000e+0
vn -0.36586126 -9.0679399e-3 -0.93062522
vn 0.35302005 -0.93561576 0.0000000e+0
vn 0.36586126 -9.0679399e-3 -0.93062522
vn 0.32305087 0.94638160 0.0000000e+0
vn 0.36586126 -9.0679399e-3 0.93062522
vn -0.99941968 3.4063191e-2 0.0000000e+0
vn 0.99941968 3.4063191e-2 0.0000000e+0
vn 0.0000000e+0 0.31022705 0.95066249
vn 0.0000000e+0 1.00000000 0.0000000e+0
vn 0.0000000e+0 0.31022705 -0.95066249
vn 0.0000000e+0 0.93636204 -0.35103581
vn 0.0000000e+0 -6.3040188e-2 0.99801099
vn 0.0000000e+0 -1.00000000 0.0000000e+0
vn 0.0000000e+0 -6.3040188e-2 -0.99801099
vn 0.0000000e+0 0.93636204 0.35103581
g Cube2_Apple
usemtl Apple
s 1
f 1//1 26//26 82//82 25//25
f 1//1 62//62 83//83 26//26
f 2//2 25//25 82//82 27//27
f 3//3 26//26 83//83 61//61
f 3//3 38//38 71//71 28//28
f 3//3 61//61 90//90 38//38
f 4//4 28//28 71//71 36//36
f 5//5 62//62 84//84 29//29
f 6//6 63//63 85//85 31//31
f 7//7 30//30 81//81 32//32
f 7//7 61//61 83//83 30//30
f 8//8 32//32 81//81 31//31
f 8//8 64//64 86//86 44//44
f 9//9 33//33 73//73 46//46
f 9//9 46//46 76//76 37//37
f 10//10 34//34 74//74 48//48
f 10//10 48//48 73//73 33//33
f 11//11 35//35 75//75 50//50
f 11//11 36//36 71//71 35//35
f 11//11 50//50 74//74 34//34
f 12//12 37//37 76//76 52//52
f 12//12 38//38 90//90 68//68
f 12//12 52//52 75//75 35//35
f 13//13 39//39 77//77 54//54
f 13//13 54//54 80//80 43//43
f 13//13 66//66 88//88 39//39
f 14//14 40//40 78//78 56//56
f 14//14 56//56 77//77 39//39
f 14//14 67//67 89//89 40//40
f 15//15 41//41 79//79 58//58
f 15//15 42//42 72//72 41//41
f 15//15 58//58 78//78 40//40
f 15//15 68//68 90//90 42//42
f 16//16 43//43 80//80 60//60
f 16//16 60//60 79//79 41//41
f 16//16 65//65 87//87 43//43
f 17//17 45//45 70//70 51//51
f 17//17 46//46 73//73 45//45
f 18//18 47//47 70//70 45//45
f 18//18 48//48 74//74 47//47
f 19//19 49//49 70//70 47//47
f 19//19 50//50 75//75 49//49
f 20//20 51//51 70//70 49//49
f 20//20 52//52 76//76 51//51
f 21//21 53//53 69//69 59//59
f 21//21 54//54 77//77 53//53
f 22//22 55//55 69//69 53//53
f 22//22 56//56 78//78 55//55
f 23//23 57//57 69//69 55//55
f 23//23 58//58 79//79 57//57
f 24//24 59//59 69//69 57//57
f 24//24 60//60 80//80 59//59
f 25//25 84//84 62//62 1//1
f 27//27 82//82 28//28 4//4
f 27//27 85//85 63//63 2//2
f 28//28 82//82 26//26 3//3
f 29//29 81//81 30//30 5//5
f 29//29 84//84 63//63 6//6
f 30//30 83//83 62//62 5//5
f 31//31 81//81 29//29 6//6
f 31//31 85//85 64//64 8//8
f 32//32 72//72 42//42 7//7
f 33//33 88//88 66//66 10//10
f 34//34 87//87 65//65 11//11
f 35//35 71//71 38//38 12//12
f 36//36 86//86 64//64 4//4
f 37//37 89//89 67//67 9//9
f 39//39 88//88 67//67 14//14
f 40//40 89//89 68//68 15//15
f 41//41 72//72 44//44 16//16
f 42//42 90//90 61//61 7//7
f 43//43 87//87 66//66 13//13
f 44//44 72//72 32//32 8//8
f 44//44 86//86 65//65 16//16
f 45//45 73//73 48//48 18//18
f 47//47 74//74 50//50 19//19
f 49//49 75//75 52//52 20//20
f 51//51 76//76 46//46 17//17
f 53//53 77//77 56//56 22//22
f 55//55 78//78 58//58 23//23
f 57//57 79//79 60//60 24//24
f 59//59 80//80 54//54 21//21
f 63//63 84//84 25//25 2//2
f 64//64 85//85 27//27 4//4
f 65//65 86//86 36//36 11//11
f 66//66 87//87 34//34 10//10
f 67//67 88//88 33//33 9//9
f 68//68 89//89 37//37 12//12
